<?xml version="1.0" encoding="utf-8"?>
<!-- Generator: Adobe Illustrator 18.1.1, SVG Export Plug-In . SVG Version: 6.00 Build 0)  -->
<!DOCTYPE svg PUBLIC "-//W3C//DTD SVG 1.1//EN" "http://www.w3.org/Graphics/SVG/1.1/DTD/svg11.dtd">
<svg version="1.1" id="Layer_1" xmlns="http://www.w3.org/2000/svg" xmlns:xlink="http://www.w3.org/1999/xlink" x="0px" y="0px"
	 viewBox="0 0 53 74" enable-background="new 0 0 53 74" xml:space="preserve">
<g>
	<g>
		<polygon fill="#383838" points="10,57.1 3.2,57.1 3.2,10.5 39.8,10.5 39.8,14.1 43,14.1 43,7.3 0,7.3 0,60.3 10,60.3 		"/>
		<rect x="6.4" y="21.1" fill="#383838" width="3.6" height="1.6"/>
		<rect x="6.4" y="25.8" fill="#383838" width="3.6" height="1.6"/>
		<rect x="6.4" y="44.9" fill="#383838" width="3.6" height="1.6"/>
	</g>
	<g>
		<g>
			<path fill="#383838" d="M53,67.1H10v-53h43V67.1z M13.2,63.9h36.7V17.3H13.2V63.9z"/>
		</g>
		<g>
			<rect x="16.3" y="51.6" fill="#383838" width="30.3" height="1.6"/>
		</g>
		<polygon fill="#383838" points="22.9,27.8 25,29.4 43.4,29.4 43.4,27.8 		"/>
		<polygon fill="#383838" points="29,32.6 30.4,33.7 31.1,34.2 46.6,34.2 46.6,32.6 		"/>
		<polygon fill="#383838" points="32.1,37.4 30.4,38.7 30,39 43.4,39 43.4,37.4 		"/>
		<polygon fill="#383838" points="26,42.1 23.9,43.7 46.6,43.7 46.6,42.1 		"/>
		<polygon fill="#383838" points="19.8,46.9 17.8,48.5 43.4,48.5 43.4,46.9 		"/>
	</g>
	<g>
		<polygon fill="#383838" points="28.4,36.2 19.4,29.1 19.4,33 6.6,33 6.6,39.4 19.4,39.4 19.4,43.2 		"/>
	</g>
</g>
</svg>
