<?xml version="1.0" encoding="utf-8"?>
<!-- Generator: Adobe Illustrator 18.1.1, SVG Export Plug-In . SVG Version: 6.00 Build 0)  -->
<!DOCTYPE svg PUBLIC "-//W3C//DTD SVG 1.1//EN" "http://www.w3.org/Graphics/SVG/1.1/DTD/svg11.dtd">
<svg version="1.1" id="Layer_1" xmlns="http://www.w3.org/2000/svg" xmlns:xlink="http://www.w3.org/1999/xlink" x="0px" y="0px"
	 viewBox="0 0 53 74" enable-background="new 0 0 53 74" xml:space="preserve">
<g>
	<polygon fill="#383838" points="38.5,44.1 38.5,59.5 3.1,59.5 3.1,14.5 38.5,14.5 38.5,14.5 41.6,14.5 41.6,14.5 41.6,11.4 0,11.4 
		0,62.6 41.6,62.6 41.6,44.1 	"/>
	<polygon fill="#383838" points="31.2,27 6.2,27 6.2,28.5 30.4,28.5 	"/>
	<g>
		<polygon fill="#383838" points="28.7,31.6 6.2,31.6 6.2,33.1 27.9,33.1 		"/>
	</g>
	<g>
		<polygon fill="#383838" points="26.3,36.2 6.2,36.2 6.2,37.7 25.4,37.7 		"/>
	</g>
	<g>
		<polygon fill="#383838" points="27.3,40.8 27.2,41 35.5,41 35.5,40.8 		"/>
		<polygon fill="#383838" points="23.8,40.8 6.2,40.8 6.2,42.3 23,42.3 		"/>
	</g>
	<g>
		<rect x="6.2" y="45.4" fill="#383838" width="26.2" height="1.5"/>
	</g>
	<g>
		<rect x="6.2" y="50" fill="#383838" width="29.3" height="1.5"/>
	</g>
	<g>
		<polygon fill="#383838" points="35.8,24.9 27.2,41 53,41 44.4,24.9 44.4,17.6 41.7,17.6 41.7,25.6 48.5,38.3 31.7,38.3 38.5,25.6 
			38.5,17.6 35.8,17.6 		"/>
		<polygon fill="#383838" points="42.4,31.1 45.4,36.7 34.8,36.7 37.7,31.1 		"/>
	</g>
</g>
</svg>
