<?xml version="1.0" encoding="utf-8"?>
<!-- Generator: Adobe Illustrator 18.1.1, SVG Export Plug-In . SVG Version: 6.00 Build 0)  -->
<!DOCTYPE svg PUBLIC "-//W3C//DTD SVG 1.1//EN" "http://www.w3.org/Graphics/SVG/1.1/DTD/svg11.dtd">
<svg version="1.1" id="Layer_1" xmlns="http://www.w3.org/2000/svg" xmlns:xlink="http://www.w3.org/1999/xlink" x="0px" y="0px"
	 viewBox="0 0 53 74" enable-background="new 0 0 53 74" xml:space="preserve">
<g>
	<path fill="#383838" d="M41.2,38.5v20.8H10.3V20h30.9v3c0.9,0,2.1,0,2.7,0v-5.7H7.7v44.6h36.2V38.4C43,38.5,41.9,38.5,41.2,38.5z"
		/>
	<path fill="#383838" d="M32.8,30.1L32.8,30.1c0-0.4,0-0.8,0-1.2H13v1.4h19.8C32.8,30.2,32.8,30.2,32.8,30.1z"/>
	<rect x="13" y="32.9" fill="#383838" width="19.8" height="1.4"/>
	<polygon fill="#383838" points="33.8,37 13,37 13,38.4 35.3,38.4 	"/>
	<rect x="13" y="41" fill="#383838" width="25.5" height="1.4"/>
	<rect x="13" y="45" fill="#383838" width="22.9" height="1.4"/>
	<rect x="13" y="49" fill="#383838" width="25.5" height="1.4"/>
	<path fill="#383838" d="M50.4,26.4l-4.2-3.8v2.4c-0.5,0-5.7,0-6.1,0c-0.6,0-1.3,0-1.9,0c-1.8,0-3.3,1.4-3.4,3.1
		c-0.1,0.7-0.1,1.4-0.1,2.1c0,0.3,0,0.5,0,0.9c0,0.1,0,0.4,0,0.4v1.3l2.7-2.7l0.2-0.2v-0.2c0,0,0-0.1,0-0.9c0-0.5,0.3-0.8,0.7-0.8
		h7.9v2.4L50.4,26.4z"/>
	<path fill="#383838" d="M45.3,31L45.3,31z"/>
	<polygon fill="#383838" points="7.7,54 5.3,54 5.3,14.7 36.2,14.7 36.2,17.4 38.8,17.4 38.8,12 2.6,12 2.6,56.6 7.7,56.6 	"/>
	<path fill="#383838" d="M34.7,35.2l4.2,3.8v-2.4c0.5,0,5.7,0,6.1,0c0.6,0,1.3,0,1.9,0c1.8,0,3.3-1.4,3.4-3.1
		c0.1-0.5,0.1-1.3,0.1-1.9c0-0.3,0-0.5,0-0.9c0-0.1,0-0.4,0-0.4v-1.3l-2.7,2.7l-0.2,0.2v0.2c0,0,0,0.1,0,0.9c0,0.5-0.3,0.8-0.7,0.8
		H39v-2.4L34.7,35.2z"/>
</g>
</svg>
