<?xml version="1.0" encoding="UTF-8" standalone="no"?>
<svg width="53px" height="74px" viewBox="0 0 53 74" version="1.1" xmlns="http://www.w3.org/2000/svg" xmlns:xlink="http://www.w3.org/1999/xlink" xmlns:sketch="http://www.bohemiancoding.com/sketch/ns">
    <!-- Generator: Sketch 3.1.1 (8761) - http://www.bohemiancoding.com/sketch -->
    <title>icon-awaiting-replication-53x74 2</title>
    <desc>Created with Sketch.</desc>
    <defs></defs>
    <g id="Page-1" stroke="none" stroke-width="1" fill="none" fill-rule="evenodd" sketch:type="MSPage">
        <g id="icon-replication-53x74" sketch:type="MSLayerGroup" transform="translate(0.000000, 9.000000)" fill="#999999">
            <g id="Group" sketch:type="MSShapeGroup">
                <g transform="translate(6.000000, 6.000000)">
                    <path d="M36.8,23.7 L36.8,46.7 L2.6,46.7 L2.6,3.2 L36.8,3.2 L36.8,6.5 L39.8,6.5 L39.8,0.2 L-0.3,0.2 L-0.3,49.6 L39.8,49.6 L39.8,23.6 C38.8,23.7 37.5,23.7 36.8,23.7 L36.8,23.7 Z" id="Shape"></path>
                    <path d="M27.5,14.4 L27.5,14.4 L27.5,13.1 L5.6,13.1 L5.6,14.6 L27.5,14.6 L27.5,14.4 L27.5,14.4 Z" id="Shape"></path>
                    <path d="M27.5,17.5 L5.6,17.5 L5.6,19 L27.5,19 L27.5,17.5 Z" id="Shape"></path>
                    <path d="M28.6,22 L5.6,22 L5.6,23.5 L30.2,23.5 L28.6,22 Z" id="Shape"></path>
                    <rect id="Rectangle-path" x="6" y="26" width="28.2" height="1.5"></rect>
                    <rect id="Rectangle-path" x="6" y="31" width="25.3" height="1.5"></rect>
                    <rect id="Rectangle-path" x="6" y="35" width="28.2" height="1.5"></rect>
                </g>
                <g transform="translate(36.000000, 12.000000)" id="Shape">
                    <path d="M17,4.3 L12.4,0.1 L12.4,2.8 L5.6,2.8 L3.5,2.8 C1.5,2.8 -0.1,4.3 -0.3,6.2 C-0.4,7 -0.4,7.7 -0.4,8.5 L-0.4,9.5 L-0.4,9.9 L-0.4,11.3 L2.6,8.3 L2.8,8.1 L2.8,7.9 L2.8,6.9 C2.8,6.3 3.1,6 3.6,6 L12.3,6 L12.3,8.6 L17,4.3 L17,4.3 Z"></path>
                </g>
                <path d="M5.7,46.8 L3,46.8 L3,3.3 L37.2,3.3 L37.2,6.3 L40.1,6.3 L40.1,0.3 L0,0.3 L0,49.7 L5.7,49.7 L5.7,46.8 Z" id="Shape"></path>
                <path d="M35.6,26 L40.2,30.2 L40.2,27.5 L47,27.5 L49.1,27.5 C51.1,27.5 52.7,26 52.9,24.1 C53,23.5 53,22.7 53,22 L53,21 L53,20.6 L53,19.2 L50,22.2 L49.8,22.4 L49.8,22.6 L49.8,23.6 C49.8,24.2 49.5,24.5 49,24.5 L40.3,24.5 L40.3,21.9 L35.6,26 L35.6,26 Z" id="Shape"></path>
            </g>
        </g>
    </g>
</svg>