<?xml version="1.0" encoding="utf-8"?>

<svg version="1.1" xmlns="http://www.w3.org/2000/svg" xmlns:xlink="http://www.w3.org/1999/xlink" x="0px" y="0px" viewBox="-385 262.4 70.9 70.9" style="enable-background:new -385 262.4 70.9 70.9;" xml:space="preserve">
  <style type="text/css">
    .st0{fill:#229FD8;}
  </style>
  <polygon class="st0" points="-375.5,286.4 -375.5,309.3 -358.7,309.3 -346.2,320.8 -346.2,274.9 -358.7,286.4 		"/>
  <path class="st0" d="M-333.4,298.1c0-4.8-3.4-8.7-7.9-9.6v3.4c2.7,0.8,4.6,3.3,4.6,6.2c0,2.9-2,5.4-4.6,6.2v3.4
C-336.8,306.8-333.4,302.8-333.4,298.1z"/>
  <path class="st0" d="M-341.3,278.5v3.4c8.1,1,14.4,7.8,14.4,16.2s-6.3,15.2-14.4,16.2v3.4c9.9-1,17.7-9.4,17.7-19.5
C-323.6,287.9-331.4,279.5-341.3,278.5z"/>
</svg>
