<?xml version="1.0" encoding="utf-8"?>

<svg xmlns="http://www.w3.org/2000/svg" version="1.1" x="0" y="0" viewBox="-385 262.4 70.9 70.9" width="71" height="71" xml:space="preserve">
  <style type="text/css">
    .st0{fill:rgb(109,110,112);}
  </style>
  <polygon class="st0" points="-363.7 292.6 -363.7 303 -354.7 303 -347.6 309.8 -347.6 285.9 -354.7 292.6 "/>
  <path class="st0" d="M-341.5 297.8c0-2.4-1.5-4.6-3.7-5.6l-0.6 1.5c1.6 0.7 2.7 2.3 2.7 4s-1.1 3.4-2.7 4l0.6 1.5C-343 302.5-341.5 300.3-341.5 297.8zM-343.7 287.5l-0.6 1.5c3.6 1.4 6.1 4.9 6.1 8.8s-2.4 7.4-6.1 8.8l0.6 1.5c4.3-1.6 7.1-5.7 7.1-10.3C-336.5 293.3-339.4 289.1-343.7 287.5zM-349.6 273.7c-13.3 0-24.1 10.8-24.1 24.1 0 13.3 10.8 24.1 24.1 24.1 13.3 0 24.1-10.8 24.1-24.1C-325.5 284.5-336.3 273.7-349.6 273.7zM-349.6 318.6c-11.5 0-20.8-9.3-20.8-20.8 0-11.5 9.3-20.8 20.8-20.8 11.5 0 20.8 9.3 20.8 20.8C-328.7 309.3-338.1 318.6-349.6 318.6z"/>
</svg>
